# xmcd
#
# Track frame offsets:
#	150
#	28673
#	55006
#	81016
#	142311
#	168746
#	213122
#	230067
#	250141
#	271406
#	290275
#	304027
#
# Disc length: 4234 seconds
#
# Revision: 0
# Processed by: cddbd v1.4PL0 Copyright (c) Steve Scherf et al.
# Submitted via: EasyCDDAExtractor 4.6.9.1
#
DISCID=ac10880c
DTITLE=Real de Catorce - Azul y más
DYEAR=1998
DGENRE=Blues
TTITLE0=Mujer sucia
TTITLE1=La medicina
TTITLE2=Malo
TTITLE3=Pago mi renta con un poco de blues
TTITLE4=Blues del atajo
TTITLE5=Azul
TTITLE6=Suena el viento
TTITLE7=La medicina
TTITLE8=Con el alma borracha
TTITLE9=Al rojo de la tarde
TTITLE10=Cicatrices
TTITLE11=La venenosa
EXTD=
EXTT0=
EXTT1=
EXTT2=
EXTT3=
EXTT4=
EXTT5=
EXTT6=
EXTT7=
EXTT8=
EXTT9=
EXTT10=
EXTT11=
PLAYORDER=
